<svg width="18" height="18" viewBox="0 0 18 18" fill="none" xmlns="http://www.w3.org/2000/svg">
<path d="M8.99338 13.9662L4.12459 16.3981C3.75691 16.5977 3.29826 16.4644 3.09261 16.0983C3.03255 15.9831 3.00079 15.8552 3 15.7251V10.2816C3 10.8213 3.3043 11.1544 4.10474 11.5276L8.99338 13.9662Z" fill="#2859E9"/>
<path d="M11.3021 1.5C13.333 1.5 14.9802 2.29954 15 4.34503V15.7251C14.9992 15.8531 14.9674 15.9788 14.9074 16.0916C14.811 16.2755 14.6445 16.412 14.4461 16.4698C14.2477 16.5276 14.0346 16.5017 13.8556 16.3981L8.99338 13.9661L4.10474 11.5276C3.3043 11.1544 3 10.8213 3 10.2816V4.34503C3 2.29954 4.64719 1.5 6.67144 1.5H11.3021ZM11.8115 6.03072H6.16869C5.84353 6.03072 5.57993 6.29621 5.57993 6.62371C5.57993 6.95121 5.84353 7.2167 6.16869 7.2167H11.8115C12.1366 7.2167 12.4002 6.95121 12.4002 6.62371C12.4002 6.29621 12.1366 6.03072 11.8115 6.03072Z" fill="#2859E9"/>
</svg>
