<svg width="16" height="16" viewBox="0 0 16 16" fill="none" xmlns="http://www.w3.org/2000/svg">
<path d="M8.00454 1.33333C9.08303 1.33333 10.1574 1.59937 11.112 2.10268C14.3622 3.81758 15.6121 7.85699 13.8984 11.1082C12.7295 13.3253 10.4281 14.6667 7.99691 14.6667C7.52195 14.6667 7.04229 14.6156 6.56498 14.5099C6.29609 14.4499 6.12642 14.1833 6.18572 13.9143C6.24502 13.6454 6.51097 13.4768 6.78162 13.5349C9.26445 14.087 11.8277 12.8954 13.0154 10.6425C14.4726 7.87872 13.4099 4.44364 10.6465 2.98597C9.8351 2.55784 8.92158 2.33173 8.00395 2.33173C4.87356 2.33173 2.33144 4.87412 2.33144 7.99911C2.33027 8.90942 2.55219 9.81561 2.97314 10.6208L3.10112 10.871C3.25788 11.1646 3.29252 11.5293 3.19095 11.8594C3.05063 12.2294 2.9338 12.5894 2.83752 12.9477C3.21209 12.8349 3.66943 12.6687 3.99997 12.5483L4.13559 12.4995C4.39215 12.4038 4.68041 12.5395 4.77434 12.7991C4.86828 13.0581 4.73383 13.3447 4.47493 13.438L4.34107 13.4868C3.84673 13.6659 3.1704 13.912 2.71364 14.0142C2.67489 14.0224 2.63321 14.0277 2.59505 14.0265C2.28859 14.0265 2.10189 13.9026 1.99915 13.7981C1.84122 13.6377 1.76607 13.4128 1.77488 13.1297C1.77605 13.0974 1.78016 13.0639 1.78779 13.0316C1.90639 12.5266 2.06079 12.0227 2.24749 11.5346C2.26099 11.4871 2.25277 11.4007 2.21461 11.3285L2.08604 11.0789C1.59346 10.1357 1.33221 9.06858 1.33338 7.99853C1.33338 4.32324 4.32287 1.33333 7.99691 1.33333H8.00454ZM7.99714 7.20633C8.43453 7.20633 8.78972 7.56223 8.78972 7.99917C8.78972 8.43612 8.43453 8.79202 7.99714 8.79202C7.55976 8.79202 7.20456 8.43612 7.20456 7.99917C7.20456 7.56223 7.55976 7.20633 7.99714 7.20633ZM10.9326 7.20633C11.37 7.20633 11.7252 7.56223 11.7252 7.99917C11.7252 8.43612 11.37 8.79202 10.9326 8.79202C10.4952 8.79202 10.14 8.43612 10.14 7.99917C10.14 7.56223 10.4952 7.20633 10.9326 7.20633ZM5.06161 7.20656C5.499 7.20656 5.85419 7.56187 5.85419 7.99941C5.85419 8.43635 5.499 8.79167 5.06161 8.79167C4.62422 8.79167 4.26903 8.43635 4.26903 7.99941C4.26903 7.56187 4.62422 7.20656 5.06161 7.20656Z" fill="#6E7F98"/>
</svg>
