<svg width="18" height="18" viewBox="0 0 18 18" fill="none" xmlns="http://www.w3.org/2000/svg">
<path d="M8.89385 1.48145C10.0922 1.48145 11.2859 1.77705 12.3466 2.33628C15.9579 4.24173 17.3467 8.72996 15.4426 12.3425C14.1438 14.8058 11.5867 16.2963 8.88537 16.2963C8.35764 16.2963 7.82469 16.2395 7.29435 16.122C6.99558 16.0555 6.80706 15.7592 6.87294 15.4603C6.93883 15.1615 7.23433 14.9742 7.53505 15.0388C10.2937 15.6522 13.1418 14.3282 14.4615 11.825C16.0805 8.7541 14.8998 4.93734 11.8293 3.31772C10.9278 2.84201 9.91279 2.59078 8.8932 2.59078C5.41499 2.59078 2.59041 5.41566 2.59041 8.88787C2.58911 9.89932 2.83569 10.9062 3.30341 11.8009L3.44561 12.0788C3.61978 12.4051 3.65827 12.8103 3.54542 13.1771C3.38951 13.5882 3.2597 13.9882 3.15272 14.3863C3.5689 14.261 4.07707 14.0763 4.44433 13.9425L4.59501 13.8884C4.88008 13.782 5.20037 13.9327 5.30475 14.2212C5.40912 14.5089 5.25974 14.8274 4.97206 14.9311L4.82333 14.9853C4.27407 15.1843 3.52259 15.4577 3.01508 15.5713C2.97202 15.5804 2.92571 15.5863 2.88331 15.585C2.54279 15.585 2.33535 15.4473 2.22119 15.3311C2.04572 15.153 1.96222 14.9031 1.972 14.5885C1.97331 14.5527 1.97788 14.5155 1.98636 14.4796C2.11813 13.9184 2.28969 13.3585 2.49713 12.8162C2.51213 12.7634 2.503 12.6674 2.4606 12.5872L2.31774 12.3098C1.77044 11.2618 1.48015 10.0762 1.48145 8.88722C1.48145 4.80357 4.80311 1.48145 8.88537 1.48145H8.89385ZM8.88563 8.007C9.37162 8.007 9.76628 8.40244 9.76628 8.88794C9.76628 9.37344 9.37162 9.76888 8.88563 9.76888C8.39965 9.76888 8.00499 9.37344 8.00499 8.88794C8.00499 8.40244 8.39965 8.007 8.88563 8.007ZM12.1473 8.007C12.6333 8.007 13.0279 8.40244 13.0279 8.88794C13.0279 9.37344 12.6333 9.76888 12.1473 9.76888C11.6613 9.76888 11.2666 9.37344 11.2666 8.88794C11.2666 8.40244 11.6613 8.007 12.1473 8.007ZM5.62393 8.00726C6.10991 8.00726 6.50457 8.40205 6.50457 8.8882C6.50457 9.3737 6.10991 9.76849 5.62393 9.76849C5.13795 9.76849 4.74329 9.3737 4.74329 8.8882C4.74329 8.40205 5.13795 8.00726 5.62393 8.00726Z" fill="#2859E9"/>
</svg>
