<svg width="24" height="24" viewBox="0 0 24 24" fill="none" xmlns="http://www.w3.org/2000/svg">
<g clip-path="url(#clip0_298_1020)">
<path d="M16.0001 20.5C16.0001 20.5 15.2026 22.2883 15.0504 22.301C14.8983 22.3138 14.7458 22.2798 14.6135 22.2037C14.4812 22.1275 14.3753 22.0127 14.3099 21.8747L10.5081 13.8487C10.434 13.6922 10.3079 13.5661 10.1514 13.492L6.13835 11.5911L2.12535 9.69019C1.98736 9.62483 1.8726 9.5189 1.79642 9.38657C1.72024 9.25424 1.68627 9.10182 1.69904 8.94966C1.71181 8.79751 1.77072 8.65287 1.86789 8.53509C1.96506 8.41731 2.09586 8.332 2.24282 8.29055L19.711 3.36361C19.8394 3.32742 19.975 3.32609 20.104 3.35975C20.233 3.39341 20.3507 3.46085 20.445 3.55512C20.5392 3.64939 20.6067 3.76709 20.6403 3.89609C20.674 4.02509 20.6727 4.16073 20.6365 4.28904L18.173 13.0232" stroke="white" stroke-width="1.5" stroke-linecap="round" stroke-linejoin="round"/>
<path d="M10.3934 13.6065L14.6361 9.36389" stroke="white" stroke-width="1.5" stroke-linecap="round" stroke-linejoin="round"/>
</g>
<defs>
<clipPath id="clip0_298_1020">
<rect width="24" height="24" fill="white"/>
</clipPath>
</defs>
</svg>
