<svg width="23" height="22" viewBox="0 0 23 22" fill="none" xmlns="http://www.w3.org/2000/svg">
<path d="M22.6458 11.2457C22.6458 10.5206 22.5848 9.79158 22.4546 9.07825H12.0138V13.1858H17.9928C17.7446 14.5105 16.9475 15.6824 15.7801 16.4271V19.0923H19.3472C21.4418 17.2345 22.6458 14.4909 22.6458 11.2457Z" fill="#4285F4"/>
<path d="M12.0138 21.6674C14.9992 21.6674 17.5168 20.7228 19.3512 19.0923L15.7842 16.4271C14.7917 17.0777 13.5105 17.4462 12.0178 17.4462C9.13005 17.4462 6.68152 15.5688 5.80299 13.0447H2.12207V15.7922C4.00117 19.3941 7.82851 21.6674 12.0138 21.6674V21.6674Z" fill="#34A853"/>
<path d="M5.79891 13.0447C5.33524 11.7199 5.33524 10.2854 5.79891 8.96064V6.21313H2.12207C0.552085 9.22716 0.552085 12.7781 2.12207 15.7922L5.79891 13.0447V13.0447Z" fill="#FBBC04"/>
<path d="M12.0138 4.55523C13.5919 4.53172 15.1171 5.10395 16.26 6.15435L19.4203 3.10897C17.4192 1.29821 14.7633 0.302677 12.0138 0.334032C7.8285 0.334032 4.00117 2.60729 2.12207 6.21314L5.79892 8.96065C6.67339 6.43263 9.12598 4.55523 12.0138 4.55523V4.55523Z" fill="#EA4335"/>
</svg>
