<svg width="24" height="24" viewBox="0 0 24 24" fill="none" xmlns="http://www.w3.org/2000/svg">
<path d="M10.4217 20.2609H6.42174C5.12562 20.2562 4.07474 19.2092 4.06522 17.9131V9.95655C4.06776 9.52267 4.26191 9.11209 4.59565 8.83481L5.3 8.31307C5.55714 8.03911 5.58329 7.62105 5.36229 7.31718C5.14129 7.01331 4.73552 6.90938 4.39565 7.0696L3.67391 7.60873C2.94588 8.17205 2.51384 9.03613 2.5 9.95655V17.9218C2.50478 20.0857 4.25781 21.8387 6.42174 21.8435H10.4217C10.854 21.8435 11.2043 21.4931 11.2043 21.0609C11.2043 20.6287 10.854 20.2783 10.4217 20.2783V20.2609Z" fill="#051028"/>
<path d="M21.2913 9.93918C21.2822 9.02551 20.8642 8.164 20.1522 7.59135L14.1435 2.80005C12.8231 1.73869 10.9422 1.73869 9.62176 2.80005L7.71742 4.18266C7.35963 4.43959 7.27787 4.93791 7.53481 5.2957C7.79174 5.65348 8.29007 5.73524 8.64785 5.47831L10.5783 4.03483C11.336 3.41103 12.4293 3.41103 13.187 4.03483L19.1957 8.82613C19.5415 9.10027 19.7458 9.51531 19.7522 9.95657V17.9218C19.7522 19.2185 18.701 20.2696 17.4044 20.2696H15.6218C15.4393 20.2696 15.2913 20.1217 15.2913 19.9392V16.3479C15.2913 15.2035 14.3662 14.2744 13.2218 14.2696H10.6131C10.0619 14.2696 9.53326 14.4886 9.14352 14.8783C8.75377 15.2681 8.53481 15.7967 8.53481 16.3479V17.7218C8.53481 18.154 8.88519 18.5044 9.31742 18.5044C9.74964 18.5044 10.1 18.154 10.1 17.7218V16.3479C10.0977 16.2126 10.1498 16.0821 10.2446 15.9856C10.3395 15.8891 10.4691 15.8348 10.6044 15.8348H13.2131C13.4916 15.8348 13.7174 16.0606 13.7174 16.3392V19.9392C13.7222 20.9875 14.5734 21.8348 15.6218 21.8348H17.3609C19.5268 21.8348 21.2826 20.079 21.2826 17.9131L21.2913 9.93918Z" fill="#051028"/>
</svg>
