<svg width="14" height="14" viewBox="0 0 14 14" fill="none" xmlns="http://www.w3.org/2000/svg">
<g opacity="0.8">
<path d="M7.00339 2.06481C7.96311 1.45116 9.13771 1.29416 10.2203 1.63483C11.1619 1.92766 11.9449 2.60027 12.3873 3.49632C12.9045 4.58234 12.9749 5.83373 12.5828 6.97284C12.222 8.02149 11.6304 8.97212 10.8534 9.75196C10.3439 10.2756 9.79495 10.7577 9.2115 11.194L9.18061 11.2202C8.98677 11.3507 8.7261 11.2994 8.59384 11.1048C8.5266 11.0108 8.4996 10.8931 8.519 10.7785C8.53839 10.6639 8.60253 10.5622 8.69679 10.4966C9.24427 10.084 9.76044 9.63005 10.2409 9.13846C10.9329 8.45752 11.4613 7.62311 11.785 6.70017C12.0964 5.7805 12.0334 4.77209 11.61 3.90008C11.2693 3.21409 10.669 2.69909 9.94753 2.47381C9.02723 2.18064 8.02461 2.35836 7.2556 2.95098C7.10272 3.06635 6.89377 3.06635 6.74089 2.95098C5.97223 2.35754 4.9692 2.17974 4.04896 2.47381C3.3226 2.69411 2.71633 3.20755 2.37101 3.89483C1.95719 4.7662 1.89799 5.76882 2.20631 6.68444C2.53143 7.60517 3.05971 8.43756 3.75043 9.11748C4.77105 10.1145 5.89648 10.9937 7.10634 11.7393C7.26021 11.848 7.32788 12.0453 7.27396 12.228C7.22004 12.4107 7.05679 12.5373 6.86957 12.5416C6.78517 12.5421 6.70261 12.5165 6.6328 12.4682C5.3725 11.6916 4.20041 10.7754 3.13793 9.73623C2.35659 8.95895 1.76284 8.00766 1.40336 6.95711C1.02488 5.81957 1.10257 4.5758 1.61954 3.49632C2.06187 2.60027 2.84485 1.92766 3.78646 1.63483C4.86908 1.29416 6.04368 1.45116 7.00339 2.06481ZM9.26811 3.78996C10.0356 4.03678 10.5819 4.72985 10.6527 5.54657L10.656 5.61502C10.6532 5.70592 10.6222 5.79425 10.5665 5.8668C10.4968 5.95747 10.3944 6.0159 10.2821 6.02899C10.0464 6.06002 9.83026 5.89138 9.79826 5.65145C9.77676 5.16686 9.45998 4.74775 9.00561 4.60272C8.83668 4.49527 8.76165 4.28416 8.82389 4.09143C8.88614 3.8987 9.06956 3.77423 9.26811 3.78996Z" fill="#6E7F98"/>
</g>
</svg>
