<svg width="14" height="13" viewBox="0 0 14 13" fill="none" xmlns="http://www.w3.org/2000/svg">
<path d="M13 11.0001L12.3332 11.7294C11.9796 12.1162 11.5001 12.3334 11.0001 12.3334C10.5001 12.3334 10.0205 12.1162 9.66692 11.7294C9.31281 11.3435 8.83332 11.1268 8.33345 11.1268C7.83359 11.1268 7.35409 11.3435 6.99998 11.7294M1 12.3334H2.11636C2.44248 12.3334 2.60554 12.3334 2.75899 12.2966C2.89504 12.2639 3.0251 12.21 3.1444 12.1369C3.27895 12.0545 3.39425 11.9392 3.62486 11.7086L12 3.3334C12.5523 2.78112 12.5523 1.88569 12 1.3334C11.4477 0.781118 10.5523 0.781119 10 1.3334L1.62484 9.70856C1.39424 9.93917 1.27894 10.0545 1.19648 10.189C1.12338 10.3083 1.0695 10.4384 1.03684 10.5744C1 10.7279 1 10.8909 1 11.2171V12.3334Z" stroke="#6E7F98" stroke-linecap="round" stroke-linejoin="round"/>
</svg>
