<svg width="24" height="24" viewBox="0 0 24 24" fill="none" xmlns="http://www.w3.org/2000/svg">
<g clip-path="url(#clip0_66_2028)">
<path d="M11.9917 18.2904L5.90573 21.3709C5.44613 21.6237 4.87283 21.4549 4.61577 20.9911C4.54069 20.8453 4.50099 20.6832 4.5 20.5185V13.6234C4.5 14.307 4.88037 14.7289 5.88093 15.2016L11.9917 18.2904Z" fill="white"/>
<path d="M14.8776 2.5C17.4162 2.5 19.4752 3.51275 19.5 6.1037V20.5185C19.499 20.6805 19.4592 20.8399 19.3842 20.9827C19.2637 21.2156 19.0556 21.3886 18.8076 21.4618C18.5597 21.535 18.2932 21.5022 18.0695 21.3709L11.9917 18.2905L5.88093 15.2016C4.88037 14.7289 4.5 14.307 4.5 13.6234V6.1037C4.5 3.51275 6.55899 2.5 9.08931 2.5H14.8776ZM15.5143 8.23891H8.46086C8.05441 8.23891 7.72492 8.5752 7.72492 8.99004C7.72492 9.40487 8.05441 9.74116 8.46086 9.74116H15.5143C15.9208 9.74116 16.2503 9.40487 16.2503 8.99004C16.2503 8.5752 15.9208 8.23891 15.5143 8.23891Z" fill="white"/>
</g>
<defs>
<clipPath id="clip0_66_2028">
<rect width="15" height="20" fill="white" transform="translate(4.5 2)"/>
</clipPath>
</defs>
</svg>
