<svg width="20" height="20" viewBox="0 0 20 20" fill="none" xmlns="http://www.w3.org/2000/svg">
<path d="M4.44954 1.67808C8.40954 -0.961917 13.6885 -0.440917 17.0695 2.91808C18.9585 4.80908 20.0085 7.36808 19.9986 10.0381C19.9795 14.7981 16.5985 18.8881 11.9285 19.8091C7.24854 20.7291 2.56954 18.2181 0.758537 13.8091C-1.06146 9.40808 0.479537 4.32808 4.44954 1.67808ZM13.4985 6.24808C13.3695 6.18808 13.2185 6.16808 13.0795 6.21808L8.13854 7.77808C7.96854 7.82808 7.83854 7.96808 7.78954 8.13808L6.21854 13.0781C6.18854 13.1781 6.18854 13.2881 6.21854 13.3881C6.25854 13.5281 6.35954 13.6481 6.48954 13.7181C6.62854 13.7981 6.77954 13.8091 6.91854 13.7681L11.8595 12.2081C12.0295 12.1581 12.1595 12.0281 12.2185 11.8581L13.7685 6.91808C13.8095 6.80908 13.8095 6.68808 13.7685 6.57808C13.7295 6.43808 13.6285 6.31808 13.4985 6.24808Z" fill="#2859E9"/>
</svg>
