<svg width="14" height="14" viewBox="0 0 14 14" fill="none" xmlns="http://www.w3.org/2000/svg">
<g opacity="0.8">
<path opacity="0.8" d="M4.76797 2.00009C5.14597 2.01118 5.51196 2.07486 5.86656 2.19123H5.90196C5.92596 2.20223 5.94396 2.21439 5.95596 2.22539C6.08856 2.26649 6.21396 2.31281 6.33395 2.37649L6.56195 2.47491C6.65195 2.52123 6.75995 2.60749 6.81995 2.6428C6.87995 2.67696 6.94595 2.71228 6.99995 2.75222C7.66654 2.2607 8.47593 1.99439 9.30992 2.00009C9.68852 2.00009 10.0665 2.05171 10.4259 2.16807C12.6405 2.8628 13.4385 5.2075 12.7719 7.25694C12.3939 8.30424 11.7759 9.26006 10.9665 10.041C9.80792 11.1237 8.53653 12.0847 7.16795 12.9126L7.01795 13L6.86195 12.9068C5.48856 12.0847 4.20998 11.1237 3.04059 10.0353C2.2366 9.25427 1.618 8.30424 1.23401 7.25694C0.556015 5.2075 1.35401 2.8628 3.59258 2.15592C3.76658 2.09802 3.94598 2.0575 4.12598 2.03492H4.19798C4.36657 2.01118 4.53397 2.00009 4.70197 2.00009H4.76797ZM10.1139 3.82963C9.86792 3.748 9.59792 3.87594 9.50792 4.11909C9.42392 4.36225 9.55592 4.62856 9.80792 4.71482C10.1925 4.85377 10.4499 5.21908 10.4499 5.62375V5.6417C10.4385 5.77428 10.4799 5.90222 10.5639 6.00064C10.6479 6.09906 10.7739 6.15638 10.9059 6.16853C11.1519 6.16217 11.3619 5.9717 11.3799 5.72796V5.65907C11.3979 4.84798 10.8885 4.1133 10.1139 3.82963Z" fill="#6E7F98"/>
</g>
</svg>
